0
SECTION
2
HEADER
9
$INSUNITS
70
4
9
$ACADVER
1
AC1014
9
$HANDSEED
5
FFFF
0
ENDSEC
0
SECTION
2
TABLES
0
TABLE
2
VPORT
5
8
100
AcDbSymbolTable
0
ENDTAB
0
TABLE
2
LTYPE
5
5
100
AcDbSymbolTable
0
LTYPE
5
14
100
AcDbSymbolTableRecord
100
AcDbLinetypeTableRecord
2
BYBLOCK
70
0
0
LTYPE
5
15
100
AcDbSymbolTableRecord
100
AcDbLinetypeTableRecord
2
BYLAYER
70
0
0
ENDTAB
0
TABLE
2
LAYER
5
2
100
AcDbSymbolTable
70
2
0
LAYER
5
50
100
AcDbSymbolTableRecord
100
AcDbLayerTableRecord
2
0
70
0
6
CONTINUOUS
0
ENDTAB
0
TABLE
2
STYLE
5
3
100
AcDbSymbolTable
70
1
0
STYLE
5
11
100
AcDbSymbolTableRecord
100
AcDbTextStyleTableRecord
2
STANDARD
70
0
0
ENDTAB
0
TABLE
2
VIEW
5
6
100
AcDbSymbolTable
70
0
0
ENDTAB
0
TABLE
2
UCS
5
7
100
AcDbSymbolTable
70
0
0
ENDTAB
0
TABLE
2
APPID
5
9
100
AcDbSymbolTable
70
2
0
APPID
5
12
100
AcDbSymbolTableRecord
100
AcDbRegAppTableRecord
2
ACAD
70
0
0
ENDTAB
0
TABLE
2
DIMSTYLE
5
A
100
AcDbSymbolTable
70
1
0
ENDTAB
0
TABLE
2
BLOCK_RECORD
5
1
100
AcDbSymbolTable
70
1
0
BLOCK_RECORD
5
1F
100
AcDbSymbolTableRecord
100
AcDbBlockTableRecord
2
*MODEL_SPACE
0
BLOCK_RECORD
5
1B
100
AcDbSymbolTableRecord
100
AcDbBlockTableRecord
2
*PAPER_SPACE
0
ENDTAB
0
ENDSEC
0
SECTION
2
BLOCKS
0
BLOCK
5
20
100
AcDbEntity
100
AcDbBlockBegin
2
*MODEL_SPACE
0
ENDBLK
5
21
100
AcDbEntity
100
AcDbBlockEnd
0
BLOCK
5
1C
100
AcDbEntity
100
AcDbBlockBegin
2
*PAPER_SPACE
0
ENDBLK
5
1D
100
AcDbEntity
100
AcDbBlockEnd
0
ENDSEC
0
SECTION
2
ENTITIES
0
CIRCLE
5
100
100
AcDbEntity
8
0
100
AcDbCircle
10
99.361934689507478
20
-1.0100874460729214
30
0
40
2.5
210
0
220
-0
230
1
0
CIRCLE
5
101
100
AcDbEntity
8
0
100
AcDbCircle
10
-99.361934689507478
20
-1.0100874460728759
30
0
40
2.5
210
0
220
-0
230
1
0
CIRCLE
5
102
100
AcDbEntity
8
0
100
AcDbCircle
10
27.22413527487458
20
36.201633961639168
30
0
40
2.5
210
-0
220
0
230
1
0
CIRCLE
5
103
100
AcDbEntity
8
0
100
AcDbCircle
10
-27.224135274874563
20
36.201633961639182
30
0
40
2.5
210
-0
220
0
230
1
0
LWPOLYLINE
5
104
100
AcDbEntity
8
0
100
AcDbPolyline
90
8
70
1
43
0.0
10
-14.799696320302809
20
-52.232592957950182
42
0.41421356237309503
10
-17.799696320302807
20
-49.232592957950189
10
-31.799696320302804
20
-49.232592957950196
42
0.41421356237309503
10
-34.799696320302807
20
-52.232592957950189
10
-34.7996963203028
20
-66.232592957950175
42
0.41421356237309503
10
-31.799696320302804
20
-69.232592957950175
10
-17.799696320302807
20
-69.23259295795016
42
0.41421356237309503
10
-14.799696320302807
20
-66.23259295795016
0
LWPOLYLINE
5
105
100
AcDbEntity
8
0
100
AcDbPolyline
90
8
70
1
43
0.0
10
-13.120734252624018
20
-39.921151520876641
10
-27.120734252624015
20
-39.921151520876641
42
-0.41421356237309503
10
-30.120734252624011
20
-36.921151520876641
10
-30.120734252624011
20
-22.921151520876649
42
-0.41421356237309548
10
-27.120734252624015
20
-19.921151520876645
10
-13.120734252624018
20
-19.921151520876645
42
-0.41421356237309481
10
-10.12073425262402
20
-22.921151520876645
10
-10.12073425262402
20
-36.921151520876649
42
-0.41421356237309465
0
LWPOLYLINE
5
106
100
AcDbEntity
8
0
100
AcDbPolyline
90
24
70
1
43
0.0
10
-16.639700332036004
20
71.500467469757012
10
-143.09039828220199
20
71.500467469757027
10
-143.0903982822019
20
66.894166610857795
42
-0.41421356237309426
10
-149.393699141101
20
60.590865751958688
10
-154
20
60.590865751958702
10
-154.00000000000003
20
-60.589865751958705
10
-149.39369914110102
20
-60.589865751958698
42
-0.41421356237309465
10
-143.0903982822019
20
-66.893166610857804
10
-143.09039828220199
20
-71.499467469756993
10
-6.303101717798274
20
-71.499467469756993
10
-6.3031017177982749
20
-66.893166610857818
42
-0.99999999999999989
10
6.3034999999999455
20
-66.893166610857804
10
6.3034999999999499
20
-71.499467469757008
10
143.09039828220199
20
-71.499467469757008
10
143.0903982822019
20
-66.893166610857804
42
-0.41421356237309503
10
149.393699141101
20
-60.589865751958698
10
154.00000000000003
20
-60.589865751958705
10
154
20
61.590865751958717
10
149.09039828220202
20
61.590865751958709
42
-0.41421356237309503
10
144.09039828220202
20
66.590865751958702
10
144.09039828220199
20
71.500467469756984
10
16.639700332036096
20
71.500467469757012
10
16.639700332036099
20
80.250903302539101
10
-16.639700332036004
20
80.250903302539101
0
LWPOLYLINE
5
107
100
AcDbEntity
8
0
100
AcDbPolyline
90
8
70
1
43
0.0
10
17.799696320303802
20
-49.228469330042273
42
0.41421356237309503
10
14.799696320303802
20
-52.228469330042273
10
14.799696320303802
20
-66.228469330042273
42
0.41421356237309531
10
17.799696320303802
20
-69.228469330042287
10
31.799696320303799
20
-69.228469330042273
42
0.41421356237309503
10
34.799696320303795
20
-66.228469330042273
10
34.799696320303795
20
-52.228469330042273
42
0.41421356237309503
10
31.799696320303799
20
-49.228469330042266
0
LWPOLYLINE
5
108
100
AcDbEntity
8
0
100
AcDbPolyline
90
8
70
1
43
0.0
10
-67.980827164063413
20
63.727542322280385
10
-67.980827164063413
20
49.727542322280378
42
-0.4142135623730942
10
-70.980827164063399
20
46.727542322280378
10
-84.980827164063427
20
46.727542322280371
42
-0.41421356237309503
10
-87.980827164063427
20
49.727542322280378
10
-87.980827164063413
20
63.727542322280385
42
-0.41421356237309503
10
-84.980827164063427
20
66.727542322280385
10
-70.980827164063399
20
66.727542322280371
42
-0.41421356237309503
0
LWPOLYLINE
5
109
100
AcDbEntity
8
0
100
AcDbPolyline
90
8
70
1
43
0.0
10
-94.698071886949748
20
65.143142155252406
10
-94.698071886949748
20
51.143142155252391
42
-0.41421356237309503
10
-97.698071886949748
20
48.143142155252391
10
-111.69807188694976
20
48.143142155252391
42
-0.41421356237309503
10
-114.69807188694978
20
51.143142155252399
10
-114.69807188694975
20
65.143142155252406
42
-0.41421356237309503
10
-111.69807188694976
20
68.143142155252406
10
-97.698071886949748
20
68.143142155252391
42
-0.41421356237309503
0
LWPOLYLINE
5
110
100
AcDbEntity
8
0
100
AcDbPolyline
90
8
70
1
43
0.0
10
-36.624675697760026
20
-51.154652946860786
10
-50.62467569776004
20
-51.154652946860786
42
-0.41421356237309503
10
-53.62467569776004
20
-48.154652946860786
10
-53.624675697760026
20
-34.1546529468608
42
-0.41421356237309465
10
-50.624675697760033
20
-31.154652946860804
10
-36.624675697760026
20
-31.1546529468608
42
-0.41421356237309503
10
-33.624675697760019
20
-34.1546529468608
10
-33.624675697760019
20
-48.154652946860779
42
-0.41421356237309503
0
LWPOLYLINE
5
111
100
AcDbEntity
8
0
100
AcDbPolyline
90
8
70
1
43
0.0
10
-101.83542372219569
20
22.254350303163019
10
-115.8354237221957
20
22.254350303163015
42
-0.41421356237309503
10
-118.83542372219571
20
25.254350303163022
10
-118.83542372219569
20
39.254350303163008
42
-0.41421356237309503
10
-115.8354237221957
20
42.254350303163008
10
-101.83542372219569
20
42.254350303163015
42
-0.41421356237309465
10
-98.835423722195671
20
39.254350303163015
10
-98.835423722195671
20
25.254350303163022
42
-0.41421356237309503
0
LWPOLYLINE
5
112
100
AcDbEntity
8
0
100
AcDbPolyline
90
8
70
1
43
0.0
10
-47.448419560461588
20
31.509844117832429
10
-61.448419560461588
20
31.509844117832433
42
-0.41421356237309503
10
-64.448419560461588
20
34.509844117832429
10
-64.448419560461588
20
48.509844117832408
42
-0.41421356237309503
10
-61.448419560461588
20
51.509844117832408
10
-47.448419560461588
20
51.509844117832415
42
-0.41421356237309503
10
-44.448419560461588
20
48.509844117832415
10
-44.448419560461581
20
34.509844117832429
42
-0.41421356237309465
0
LWPOLYLINE
5
113
100
AcDbEntity
8
0
100
AcDbPolyline
90
8
70
1
43
0.0
10
-74.870233135980953
20
20.888911662798442
10
-88.870233135980982
20
20.888911662798439
42
-0.41421356237309503
10
-91.870233135980982
20
23.888911662798446
10
-91.870233135980982
20
37.888911662798442
42
-0.41421356237309503
10
-88.870233135980982
20
40.888911662798442
10
-74.870233135980953
20
40.888911662798435
42
-0.41421356237309503
10
-71.870233135980953
20
37.888911662798442
10
-71.870233135980968
20
23.888911662798449
42
-0.41421356237309465
0
LWPOLYLINE
5
114
100
AcDbEntity
8
0
100
AcDbPolyline
90
8
70
1
43
0.0
10
142.80061430841138
20
11.10739170170719
10
128.80061430841135
20
11.107391701707183
42
-0.41421356237309481
10
125.80061430841135
20
14.107391701707188
10
125.80061430841135
20
28.107391701707186
42
-0.41421356237309503
10
128.80061430841135
20
31.10739170170719
10
142.80061430841138
20
31.107391701707193
42
-0.41421356237309503
10
145.80061430841138
20
28.107391701707186
10
145.80061430841138
20
14.107391701707197
42
-0.41421356237309548
0
LWPOLYLINE
5
115
100
AcDbEntity
8
0
100
AcDbPolyline
90
8
70
1
43
0.0
10
-55.923255070604554
20
-33.123442965665731
10
-69.923255070604569
20
-33.123442965665731
42
-0.41421356237309503
10
-72.923255070604569
20
-30.123442965665731
10
-72.923255070604554
20
-16.12344296566576
42
-0.41421356237309465
10
-69.923255070604554
20
-13.123442965665763
10
-55.923255070604547
20
-13.123442965665763
42
-0.41421356237309503
10
-52.923255070604547
20
-16.123442965665763
10
-52.923255070604554
20
-30.123442965665728
42
-0.41421356237309548
0
LWPOLYLINE
5
116
100
AcDbEntity
8
0
100
AcDbPolyline
90
8
70
1
43
0.0
10
115.83542372219667
20
22.258473931350217
10
101.83542372219664
20
22.258473931350213
42
-0.41421356237309503
10
98.835423722196637
20
25.25847393135022
10
98.835423722196651
20
39.258473931350217
42
-0.41421356237309503
10
101.83542372219664
20
42.25847393135021
10
115.83542372219667
20
42.258473931350224
42
-0.41421356237309465
10
118.83542372219667
20
39.258473931350217
10
118.83542372219667
20
25.25847393135022
42
-0.41421356237309503
0
LWPOLYLINE
5
117
100
AcDbEntity
8
0
100
AcDbPolyline
90
8
70
1
43
0.0
10
88.870233135981977
20
20.893035290985651
10
74.870233135981948
20
20.893035290985654
42
-0.41421356237309503
10
71.870233135981948
20
23.893035290985654
10
71.870233135981962
20
37.893035290985651
42
-0.41421356237309503
10
74.870233135981962
20
40.893035290985651
10
88.870233135981977
20
40.893035290985651
42
-0.41421356237309503
10
91.870233135981977
20
37.893035290985651
10
91.870233135981977
20
23.893035290985651
42
-0.41421356237309465
0
LWPOLYLINE
5
118
100
AcDbEntity
8
0
100
AcDbPolyline
90
8
70
1
43
0.0
10
-9.9998509892875358
20
23.893423805445934
10
-9.999850989287534
20
37.893423805445934
42
-0.41421356237309503
10
-6.9998509892875358
20
40.893423805445934
10
7.0001490107124633
20
40.893423805445934
42
-0.41421356237309503
10
10.000149010712462
20
37.893423805445934
10
10.000149010712462
20
23.893423805445934
42
-0.41421356237309503
10
7.0001490107124633
20
20.893423805445934
10
-6.9998509892875358
20
20.893423805445934
42
-0.41421356237309503
0
LWPOLYLINE
5
119
100
AcDbEntity
8
0
100
AcDbPolyline
90
8
70
1
43
0.0
10
-51.492600845221979
20
5.7624551914741318
10
-65.492600845221958
20
5.76245519147413
42
-0.41421356237309503
10
-68.492600845221958
20
8.7624551914741282
10
-68.492600845221972
20
22.762455191474132
42
-0.41421356237309503
10
-65.492600845221972
20
25.762455191474132
10
-51.492600845221986
20
25.762455191474132
42
-0.41421356237309503
10
-48.492600845221993
20
22.762455191474132
10
-48.492600845221986
20
8.76245519147413
42
-0.41421356237309515
0
LWPOLYLINE
5
120
100
AcDbEntity
8
0
100
AcDbPolyline
90
8
70
1
43
0.0
10
65.492600845222981
20
5.7665788196613388
10
51.492600845222967
20
5.7665788196613406
42
-0.41421356237309503
10
48.492600845222967
20
8.7665788196613388
10
48.492600845222981
20
22.766578819661337
42
-0.41421356237309503
10
51.492600845222974
20
25.766578819661341
10
65.492600845222995
20
25.766578819661333
42
-0.41421356237309503
10
68.492600845222981
20
22.766578819661337
10
68.492600845222981
20
8.766578819661337
42
-0.4142135623730947
0
LWPOLYLINE
5
121
100
AcDbEntity
8
0
100
AcDbPolyline
90
8
70
1
43
0.0
10
50.624675697761042
20
-51.150529318952884
10
36.624675697761049
20
-51.150529318952884
42
-0.41421356237309503
10
33.624675697761049
20
-48.150529318952884
10
33.624675697761042
20
-34.150529318952898
42
-0.41421356237309465
10
36.624675697761042
20
-31.150529318952902
10
50.624675697761042
20
-31.150529318952902
42
-0.41421356237309503
10
53.624675697761042
20
-34.150529318952898
10
53.624675697761049
20
-48.150529318952877
42
-0.41421356237309503
0
LWPOLYLINE
5
122
100
AcDbEntity
8
0
100
AcDbPolyline
90
8
70
1
43
0.0
10
-32.440209332028907
20
-21.868392333608281
10
-46.440209332028914
20
-21.868392333608277
42
-0.41421356237309481
10
-49.440209332028914
20
-18.868392333608277
10
-49.440209332028914
20
-4.8683923336082735
42
-0.41421356237309465
10
-46.440209332028914
20
-1.8683923336082771
10
-32.440209332028907
20
-1.8683923336082735
42
-0.41421356237309509
10
-29.4402093320289
20
-4.8683923336082771
10
-29.440209332028907
20
-18.868392333608274
42
-0.41421356237309531
0
LWPOLYLINE
5
123
100
AcDbEntity
8
0
100
AcDbPolyline
90
8
70
1
43
0.0
10
-145.80061430841042
20
14.10326807351999
10
-145.80061430841045
20
28.103268073519988
42
-0.41421356237309503
10
-142.80061430841042
20
31.103268073519992
10
-128.80061430841042
20
31.103268073519995
42
-0.41421356237309503
10
-125.8006143084104
20
28.103268073519988
10
-125.8006143084104
20
14.10326807351999
42
-0.41421356237309465
10
-128.80061430841042
20
11.103268073519994
10
-142.80061430841042
20
11.103268073520002
42
-0.41421356237309481
0
LWPOLYLINE
5
124
100
AcDbEntity
8
0
100
AcDbPolyline
90
8
70
1
43
0.0
10
-121.59085881604766
20
54.046602240444848
42
0.41421356237309503
10
-124.59085881604766
20
57.046602240444848
10
-138.59085881604767
20
57.046602240444855
42
0.41421356237309503
10
-141.59085881604767
20
54.046602240444855
10
-141.5908588160477
20
40.046602240444848
42
0.41421356237309503
10
-138.59085881604767
20
37.046602240444841
10
-124.59085881604766
20
37.046602240444841
42
0.41421356237309503
10
-121.59085881604767
20
40.046602240444841
0
ENDSEC
0
SECTION
2
OBJECTS
0
DICTIONARY
5
C
100
AcDbDictionary
3
ACAD_GROUP
350
D
3
ACAD_MLINESTYLE
350
17
0
DICTIONARY
5
D
100
AcDbDictionary
0
DICTIONARY
5
1A
330
C
100
AcDbDictionary
0
DICTIONARY
5
17
100
AcDbDictionary
0
ENDSEC
0
EOF
