0
SECTION
2
HEADER
9
$INSUNITS
70
4
9
$ACADVER
1
AC1014
9
$HANDSEED
5
FFFF
0
ENDSEC
0
SECTION
2
TABLES
0
TABLE
2
VPORT
5
8
100
AcDbSymbolTable
0
ENDTAB
0
TABLE
2
LTYPE
5
5
100
AcDbSymbolTable
0
LTYPE
5
14
100
AcDbSymbolTableRecord
100
AcDbLinetypeTableRecord
2
BYBLOCK
70
0
0
LTYPE
5
15
100
AcDbSymbolTableRecord
100
AcDbLinetypeTableRecord
2
BYLAYER
70
0
0
ENDTAB
0
TABLE
2
LAYER
5
2
100
AcDbSymbolTable
70
2
0
LAYER
5
50
100
AcDbSymbolTableRecord
100
AcDbLayerTableRecord
2
0
70
0
6
CONTINUOUS
0
ENDTAB
0
TABLE
2
STYLE
5
3
100
AcDbSymbolTable
70
1
0
STYLE
5
11
100
AcDbSymbolTableRecord
100
AcDbTextStyleTableRecord
2
STANDARD
70
0
0
ENDTAB
0
TABLE
2
VIEW
5
6
100
AcDbSymbolTable
70
0
0
ENDTAB
0
TABLE
2
UCS
5
7
100
AcDbSymbolTable
70
0
0
ENDTAB
0
TABLE
2
APPID
5
9
100
AcDbSymbolTable
70
2
0
APPID
5
12
100
AcDbSymbolTableRecord
100
AcDbRegAppTableRecord
2
ACAD
70
0
0
ENDTAB
0
TABLE
2
DIMSTYLE
5
A
100
AcDbSymbolTable
70
1
0
ENDTAB
0
TABLE
2
BLOCK_RECORD
5
1
100
AcDbSymbolTable
70
1
0
BLOCK_RECORD
5
1F
100
AcDbSymbolTableRecord
100
AcDbBlockTableRecord
2
*MODEL_SPACE
0
BLOCK_RECORD
5
1B
100
AcDbSymbolTableRecord
100
AcDbBlockTableRecord
2
*PAPER_SPACE
0
ENDTAB
0
ENDSEC
0
SECTION
2
BLOCKS
0
BLOCK
5
20
100
AcDbEntity
100
AcDbBlockBegin
2
*MODEL_SPACE
0
ENDBLK
5
21
100
AcDbEntity
100
AcDbBlockEnd
0
BLOCK
5
1C
100
AcDbEntity
100
AcDbBlockBegin
2
*PAPER_SPACE
0
ENDBLK
5
1D
100
AcDbEntity
100
AcDbBlockEnd
0
ENDSEC
0
SECTION
2
ENTITIES
0
LWPOLYLINE
5
100
100
AcDbEntity
8
0
100
AcDbPolyline
90
4
70
1
43
0.0
10
-47.448419560460586
20
48.507782301050703
10
-47.448419560460586
20
34.507782306147398
10
-61.448419560461637
20
34.507782306147391
10
-61.448419560461637
20
48.507782301050696
0
LWPOLYLINE
5
101
100
AcDbEntity
8
0
100
AcDbPolyline
90
4
70
1
43
0.0
10
-124.590858816047
20
54.044540423663165
10
-124.590858816047
20
40.044540428759845
10
-138.59085881604807
20
40.044540428759845
10
-138.59085881604807
20
54.044540423663143
0
CIRCLE
5
102
100
AcDbEntity
8
0
100
AcDbCircle
10
-27.224135274874573
20
36.201633961639189
30
0
40
2.5
210
0
220
-0
230
1
0
LWPOLYLINE
5
103
100
AcDbEntity
8
0
100
AcDbPolyline
90
4
70
1
43
0.0
10
-84.980827164063427
20
49.725480510595403
10
-84.980827164063427
20
63.725480505498702
10
-70.980827164062376
20
63.725480505498723
10
-70.980827164062376
20
49.725480510595403
0
LWPOLYLINE
5
104
100
AcDbEntity
8
0
100
AcDbPolyline
90
4
70
1
43
0.0
10
-101.83542372219584
20
39.256412114568519
10
-101.83542372219584
20
25.256412119665214
10
-115.83542372219689
20
25.256412119665214
10
-115.83542372219689
20
39.256412114568512
0
LWPOLYLINE
5
105
100
AcDbEntity
8
0
100
AcDbPolyline
90
4
70
1
43
0.0
10
-97.698071886948838
20
65.141080338470715
10
-97.698071886948838
20
51.14108034356741
10
-111.69807188694989
20
51.14108034356741
10
-111.69807188694989
20
65.141080338470715
0
LWPOLYLINE
5
106
100
AcDbEntity
8
0
100
AcDbPolyline
90
4
70
1
43
0.0
10
115.83542372219789
20
39.260535743035192
10
115.83542372219789
20
25.260535748131883
10
101.83542372219684
20
25.260535748131893
10
101.83542372219684
20
39.260535743035192
0
LWPOLYLINE
5
107
100
AcDbEntity
8
0
100
AcDbPolyline
90
4
70
1
43
0.0
10
-13.120734252622988
20
-36.923213332561588
10
-27.12073425262404
20
-36.923213332561595
10
-27.12073425262404
20
-22.923213337658296
10
-13.12073425262299
20
-22.923213337658282
0
CIRCLE
5
108
100
AcDbEntity
8
0
100
AcDbCircle
10
99.361934689507478
20
-1.0100874460729243
30
0
40
2.5
210
0
220
-0
230
1
0
LWPOLYLINE
5
109
100
AcDbEntity
8
0
100
AcDbPolyline
90
4
70
1
43
0.0
10
17.79969632030377
20
-66.226407513260625
10
17.79969632030377
20
-52.226407518357327
10
31.799696320304818
20
-52.226407518357327
10
31.799696320304818
20
-66.226407513260625
0
LWPOLYLINE
5
110
100
AcDbEntity
8
0
100
AcDbPolyline
90
4
70
1
43
0.0
10
36.624675697760971
20
-48.148467502171222
10
36.624675697760971
20
-34.148467507267924
10
50.624675697762029
20
-34.148467507267924
10
50.624675697762029
20
-48.148467502171229
0
LWPOLYLINE
5
111
100
AcDbEntity
8
0
100
AcDbPolyline
90
4
70
1
43
0.0
10
51.492600845222974
20
8.7686406364430063
10
51.492600845222974
20
22.768640631346301
10
65.492600845224032
20
22.768640631346301
10
65.492600845224032
20
8.7686406364429956
0
LWPOLYLINE
5
112
100
AcDbEntity
8
0
100
AcDbPolyline
90
4
70
1
43
0.0
10
128.80061430841099
20
14.109453518488886
10
128.80061430841099
20
28.109453513392182
10
142.80061430841204
20
28.109453513392182
10
142.80061430841204
20
14.109453518488877
0
LWPOLYLINE
5
113
100
AcDbEntity
8
0
100
AcDbPolyline
90
4
70
1
43
0.0
10
-6.9999999999995328
20
8.7645170082558046
10
-6.9999999999995328
20
22.764517003159099
10
7.0000000000015188
20
22.764517003159099
10
7.0000000000015188
20
8.7645170082557922
0
LWPOLYLINE
5
114
100
AcDbEntity
8
0
100
AcDbPolyline
90
4
70
1
43
0.0
10
-51.492600845221979
20
22.764517002879629
10
-51.492600845221979
20
8.7645170079763233
10
-65.492600845223038
20
8.7645170079763197
10
-65.492600845223038
20
22.764517002879614
0
LWPOLYLINE
5
115
100
AcDbEntity
8
0
100
AcDbPolyline
90
4
70
1
43
0.0
10
-128.80061430840999
20
28.10532988492551
10
-128.80061430840999
20
14.105329890022205
10
-142.80061430841104
20
14.105329890022205
10
-142.80061430841104
20
28.105329884925503
0
LWPOLYLINE
5
116
100
AcDbEntity
8
0
100
AcDbPolyline
90
4
70
1
43
0.0
10
-55.923255070603531
20
-16.125504782447436
10
-55.923255070603531
20
-30.125504777350741
10
-69.923255070604583
20
-30.125504777350748
10
-69.923255070604583
20
-16.12550478244745
0
LWPOLYLINE
5
117
100
AcDbEntity
8
0
100
AcDbPolyline
90
4
70
1
43
0.0
10
-32.440209332027891
20
-4.8704541503899703
10
-32.440209332027891
20
-18.87045414529328
10
-46.440209332028942
20
-18.870454145293284
10
-46.440209332028942
20
-4.8704541503899845
0
LWPOLYLINE
5
118
100
AcDbEntity
8
0
100
AcDbPolyline
90
4
70
1
43
0.0
10
-50.62467569776004
20
-48.152591130079117
10
-50.62467569776004
20
-34.152591135175811
10
-36.624675697758988
20
-34.152591135175811
10
-36.624675697758995
20
-48.152591130079124
0
LWPOLYLINE
5
119
100
AcDbEntity
8
0
100
AcDbPolyline
90
4
70
1
43
0.0
10
-17.799696320301791
20
-52.230531146265221
10
-17.799696320301791
20
-66.230531141168527
10
-31.799696320302839
20
-66.230531141168512
10
-31.799696320302843
20
-52.230531146265221
0
CIRCLE
5
120
100
AcDbEntity
8
0
100
AcDbCircle
10
-99.361934689507478
20
-1.0100874460728733
30
0
40
2.5
210
0
220
-0
230
1
0
LWPOLYLINE
5
121
100
AcDbEntity
8
0
100
AcDbPolyline
90
4
70
1
43
0.0
10
88.870233135982986
20
37.89509710267069
10
88.870233135982986
20
23.895097107767384
10
74.870233135981934
20
23.895097107767391
10
74.870233135981934
20
37.89509710267069
0
CIRCLE
5
122
100
AcDbEntity
8
0
100
AcDbCircle
10
27.224135274874577
20
36.201633961639168
30
0
40
2.5
210
0
220
-0
230
1
0
LWPOLYLINE
5
123
100
AcDbEntity
8
0
100
AcDbPolyline
90
4
70
1
43
0.0
10
-88.870233135981991
20
23.890973479300715
10
-88.870233135981991
20
37.89097347420401
10
-74.870233135980939
20
37.890973474204024
10
-74.870233135980939
20
23.890973479300715
0
LWPOLYLINE
5
124
100
AcDbEntity
8
0
100
AcDbPolyline
90
27
70
1
43
0.0
10
-149.393699141101
20
60.590865751958688
42
0.41421356237309426
10
-143.0903982822019
20
66.894166610857795
10
-143.09039828220199
20
72.500467469756998
10
-16.639700332036004
20
72.500467469757012
10
-16.639700332036004
20
80.250903302539101
10
-4.6499999999999631
20
80.250903302539101
10
4.650000000000027
20
80.250903302539101
10
16.639700332036099
20
80.250903302539101
10
16.639700332036096
20
72.500467469757012
10
143.09039828220199
20
72.500467469757012
42
-0.41421356237309764
10
144.09039828220199
20
71.500467469757012
10
144.09039828220199
20
66.590865751958702
42
0.41421356237309503
10
149.09039828220199
20
61.590865751958709
10
154
20
61.590865751958717
10
154.00000000000003
20
-60.589865751958705
10
149.393699141101
20
-60.589865751958698
42
0.41421356237309503
10
143.09039828220187
20
-66.893166610857804
10
143.09039828220199
20
-71.499467469756993
10
6.3034999999999481
20
-71.499467469757008
10
6.3034999999999446
20
-66.893166610857804
42
0.99999999999999989
10
-6.3031017177982758
20
-66.893166610857804
10
-6.303101717798274
20
-71.499467469756993
10
-143.09039828220199
20
-71.499467469756993
10
-143.0903982822019
20
-66.893166610857804
42
0.41421356237309465
10
-149.393699141101
20
-60.589865751958698
10
-154.00000000000003
20
-60.589865751958705
10
-154
20
60.590865751958702
0
ENDSEC
0
SECTION
2
OBJECTS
0
DICTIONARY
5
C
100
AcDbDictionary
3
ACAD_GROUP
350
D
3
ACAD_MLINESTYLE
350
17
0
DICTIONARY
5
D
100
AcDbDictionary
0
DICTIONARY
5
1A
330
C
100
AcDbDictionary
0
DICTIONARY
5
17
100
AcDbDictionary
0
ENDSEC
0
EOF
